HIERARCHY
ROOT Hips
{
 OFFSET 0.000000 0.000000 0.000000
 CHANNELS 6 Xposition Yposition Zposition Yrotation Xrotation Zrotation
 JOINT Chest
 {
  OFFSET 0.000000 9.585900 0.002600
  CHANNELS 3 Yrotation Xrotation Zrotation
  JOINT Chest2
  {
   OFFSET 0.000000 9.601200 -0.005300
   CHANNELS 3 Yrotation Xrotation Zrotation
   JOINT Chest3
   {
    OFFSET 0.000000 9.561800 0.000000
    CHANNELS 3 Yrotation Xrotation Zrotation
    JOINT Chest4
    {
     OFFSET 0.000000 9.552100 0.000000
     CHANNELS 3 Yrotation Xrotation Zrotation
     JOINT Neck
     {
      OFFSET 0.000000 14.453000 0.000000
      CHANNELS 3 Yrotation Xrotation Zrotation
      JOINT Head
      {
       OFFSET 0.000000 8.936500 -0.011300
       CHANNELS 3 Yrotation Xrotation Zrotation
       End Site
       {
        OFFSET 0.000000 17.073600 -0.006000
       }
      }
     }
     JOINT RightCollar
     {
      OFFSET -2.921100 9.558500 0.000000
      CHANNELS 3 Yrotation Xrotation Zrotation
      JOINT RightShoulder
      {
       OFFSET -13.519700 0.000000 0.000000
       CHANNELS 3 Yrotation Xrotation Zrotation
       JOINT RightElbow
       {
        OFFSET 0.000000 -29.696600 0.000000
        CHANNELS 3 Yrotation Xrotation Zrotation
        JOINT RightWrist
        {
         OFFSET 0.000000 -24.004700 0.000000
         CHANNELS 3 Yrotation Xrotation Zrotation
         End Site
         {
          OFFSET 0.000000 -17.728500 0.000000
         }
        }
       }
      }
     }
     JOINT LeftCollar
     {
      OFFSET 2.921100 9.558500 0.000000
      CHANNELS 3 Yrotation Xrotation Zrotation
      JOINT LeftShoulder
      {
       OFFSET 13.519700 0.000000 0.000000
       CHANNELS 3 Yrotation Xrotation Zrotation
       JOINT LeftElbow
       {
        OFFSET 0.000000 -29.696600 0.000000
        CHANNELS 3 Yrotation Xrotation Zrotation
        JOINT LeftWrist
        {
         OFFSET 0.000000 -24.004700 0.000000
         CHANNELS 3 Yrotation Xrotation Zrotation
         End Site
         {
          OFFSET 0.000000 -17.728500 0.000000
         }
        }
       }
      }
     }
    }
   }
  }
 }
 JOINT RightHip
 {
  OFFSET -7.771700 -0.012900 -0.001300
  CHANNELS 3 Yrotation Xrotation Zrotation
  JOINT RightKnee
  {
   OFFSET 0.000000 -40.869800 0.001200
   CHANNELS 3 Yrotation Xrotation Zrotation
   JOINT RightAnkle
   {
    OFFSET 0.000000 -39.717900 0.002100
    CHANNELS 3 Yrotation Xrotation Zrotation
    JOINT RightToe
    {
     OFFSET 0.000000 -4.965400 11.033500
     CHANNELS 3 Yrotation Xrotation Zrotation
     End Site
     {
      OFFSET 0.000000 -1.423100 5.872300
     }
    }
   }
  }
 }
 JOINT LeftHip
 {
  OFFSET 7.771700 -0.012900 -0.001300
  CHANNELS 3 Yrotation Xrotation Zrotation
  JOINT LeftKnee
  {
   OFFSET 0.000000 -40.869800 0.001200
   CHANNELS 3 Yrotation Xrotation Zrotation
   JOINT LeftAnkle
   {
    OFFSET 0.000000 -39.717900 0.002100
    CHANNELS 3 Yrotation Xrotation Zrotation
    JOINT LeftToe
    {
     OFFSET 0.000000 -4.965400 11.033500
     CHANNELS 3 Yrotation Xrotation Zrotation
     End Site
     {
      OFFSET 0.000000 -1.423100 5.872300
     }
    }
   }
  }
 }
}
MOTION
Frames: 9
Frame Time: 0.008333
0.000000 85.388000 0.000000 0.000000 -5.767877 0.000000 0.000000 11.653817 0.000000 0.000000 -5.885947 0.000000 0.000000 -0.000000 0.000000 0.000000 -0.000000 0.000000 0.000000 12.528835 0.000000 0.000000 0.711642 0.000000 0.000000 -0.000000 0.000000 0.000000 0.000000 -90.000000 0.000000 -2.309062 0.000000 0.000000 2.309062 0.000000 0.000000 -0.000000 0.000000 0.000000 -0.000000 90.000000 0.000000 -2.309062 0.000000 0.000000 2.309062 0.000000 0.000000 8.520406 0.000000 0.000000 1.905762 0.000000 -0.000000 -4.658285 0.000000 0.000000 -0.000000 0.000000 0.000000 8.520406 0.000000 0.000000 1.905762 0.000000 -0.000000 -4.658285 0.000000 0.000000 -0.000000 0.000000
-28.192228 46.684995 22.240059 176.197058 -30.218095 -3.065945 -0.248507 18.737217 1.524993 -0.065059 2.187011 0.220208 -0.101680 3.580819 0.334322 -0.296816 16.298573 1.555215 0.496539 16.264057 -0.571296 1.122108 -5.571675 -1.220348 0.443853 0.202748 -2.479224 6.518172 -6.300009 -15.746886 -57.281484 -66.397262 105.545211 -0.595108 2.509686 -20.054509 -0.252051 -0.913599 2.584982 -3.988182 -2.167721 12.908103 80.209651 -73.140399 -118.606796 -2.009392 9.690929 6.981855 -0.980313 -57.172070 -9.612939 -146.497656 80.637775 -138.039972 -5.882562 -10.655441 -5.961600 -0.017368 -0.280385 0.016667 -2.347026 -58.434417 11.339130 -117.268309 80.722306 -120.912210 6.262781 -8.210815 4.698301 0.115996 0.235355 0.047731
-28.191157 46.683619 22.241517 176.193679 -30.219078 -3.077375 -0.238988 18.726660 1.530412 -0.067011 2.187059 0.217521 -0.097724 3.575970 0.336649 -0.293957 16.296825 1.555205 0.495745 16.277530 -0.565434 1.120438 -5.559221 -1.225235 0.429595 0.208233 -2.472353 6.526643 -6.294851 -15.745253 -57.278306 -66.398652 105.549814 -0.585460 2.514223 -20.067404 -0.246453 -0.911903 2.580180 -4.004346 -2.161750 12.916590 80.207149 -73.136119 -118.602160 -2.007527 9.682633 6.990934 -0.971778 -57.170085 -9.600196 -146.484110 80.644229 -138.020104 -5.887344 -10.638112 -5.953718 -0.011024 -0.269895 0.007053 -2.368572 -58.435038 11.367341 -117.272765 80.722719 -120.913385 6.259839 -8.207840 4.696799 0.116943 0.237497 0.045496
-28.191408 46.682369 22.242693 176.190529 -30.223343 -3.083556 -0.231009 18.718940 1.529724 -0.065963 2.184792 0.219908 -0.097490 3.572759 0.333828 -0.287990 16.291309 1.557378 0.494261 16.269093 -0.581286 1.116531 -5.529843 -1.229218 0.420046 0.218293 -2.466205 6.513393 -6.306560 -15.755813 -57.284984 -66.387195 105.569192 -0.585069 2.525169 -20.069706 -0.255577 -0.904183 2.575009 -4.011960 -2.185955 12.910214 80.182305 -73.128296 -118.566996 -2.007514 9.690866 6.993803 -0.956150 -57.166095 -9.593160 -146.473297 80.651665 -138.009807 -5.897094 -10.616825 -5.937296 -0.005178 -0.270395 -0.000714 -2.380748 -58.431495 11.381938 -117.282071 80.722634 -120.919492 6.265351 -8.211196 4.691983 0.098924 0.242814 0.046141
-28.190378 46.681175 22.244437 176.188181 -30.226654 -3.100760 -0.222864 18.710192 1.539402 -0.062538 2.168838 0.209000 -0.099145 3.583253 0.344207 -0.280911 16.260283 1.545592 0.493975 16.303496 -0.566737 1.116128 -5.526919 -1.234541 0.415353 0.259179 -2.453427 6.470389 -6.332381 -15.751781 -57.349452 -66.394798 105.660731 -0.576964 2.545238 -20.080267 -0.263002 -0.870118 2.588051 -4.012633 -2.188449 12.910345 80.204727 -73.124143 -118.585515 -2.004832 9.702546 6.993804 -0.945382 -57.161848 -9.575584 -146.459652 80.654745 -137.982911 -5.901943 -10.597471 -5.940421 -0.005741 -0.276795 0.005982 -2.412599 -58.428914 11.417003 -117.304671 80.724990 -120.936665 6.267226 -8.216571 4.683837 0.134195 0.249510 0.049149
-28.191547 46.680255 22.245963 176.185763 -30.232223 -3.107079 -0.220350 18.704076 1.539421 -0.061995 2.166836 0.208758 -0.098274 3.580112 0.343885 -0.277968 16.259006 1.545932 0.494945 16.316741 -0.562428 1.113221 -5.541973 -1.246691 0.413164 0.268278 -2.454443 6.461460 -6.334616 -15.744724 -57.389389 -66.398600 105.697194 -0.579898 2.556539 -20.078074 -0.263317 -0.865235 2.586074 -4.013872 -2.180777 12.915325 80.284796 -73.117873 -118.661110 -2.000684 9.715429 6.991570 -0.944447 -57.156605 -9.569474 -146.523346 80.670453 -138.042913 -5.891537 -10.578695 -5.962041 -0.025248 -0.281427 0.021791 -2.433444 -58.421443 11.437671 -117.306103 80.728139 -120.939700 6.261420 -8.222016 4.681482 0.111286 0.256139 0.050998
-28.194314 46.679470 22.247714 176.180132 -30.237534 -3.103934 -0.216460 18.698371 1.533664 -0.061518 2.165147 0.208578 -0.097991 3.584558 0.346173 -0.276528 16.260938 1.546755 0.492012 16.300334 -0.571748 1.109373 -5.549693 -1.251617 0.407645 0.266244 -2.456793 6.439888 -6.349214 -15.738049 -57.413941 -66.398119 105.724601 -0.583373 2.573595 -20.068402 -0.265717 -0.869123 2.575684 -4.014899 -2.196877 12.914172 80.310871 -73.121977 -118.682932 -2.010522 9.684461 6.993978 -0.935217 -57.151536 -9.572584 -146.548274 80.679872 -138.065389 -5.892416 -10.573126 -5.970540 -0.014534 -0.267228 0.015541 -2.435059 -58.415287 11.438504 -117.310922 80.731740 -120.943681 6.245780 -8.227182 4.685426 0.119851 0.262028 0.046138
-28.196924 46.678956 22.249758 176.184297 -30.242631 -3.107335 -0.219450 18.692912 1.529952 -0.061252 2.163742 0.208234 -0.097662 3.589454 0.349559 -0.272923 16.248318 1.546373 0.482164 16.269719 -0.589866 1.104792 -5.539546 -1.247023 0.409858 0.261329 -2.455843 6.400725 -6.358653 -15.718574 -57.395336 -66.399160 105.713970 -0.581940 2.574277 -20.068888 -0.278066 -0.871051 2.549845 -4.013851 -2.203560 12.926080 80.267641 -73.131349 -118.634888 -2.034742 9.655374 6.995318 -0.934004 -57.143145 -9.577467 -146.566029 80.691065 -138.077717 -5.884948 -10.569439 -5.985669 -0.018205 -0.259899 0.018620 -2.447799 -58.409408 11.440680 -117.269941 80.731707 -120.903037 6.257523 -8.224685 4.683232 0.116124 0.264096 0.044859
-28.198421 46.678490 22.252487 176.189452 -30.245701 -3.117576 -0.221397 18.690711 1.535171 -0.061655 2.159846 0.206314 -0.095173 3.584688 0.347933 -0.275801 16.224401 1.532895 0.481316 16.277638 -0.582368 1.105918 -5.531981 -1.243815 0.413222 0.288441 -2.438251 6.394766 -6.352783 -15.712715 -57.402090 -66.399578 105.718262 -0.569929 2.542910 -20.097196 -0.279308 -0.838733 2.562745 -4.010264 -2.230706 12.921466 80.218386 -73.136536 -118.589711 -2.057950 9.635661 7.002276 -0.947361 -57.130369 -9.564236 -146.612404 80.717700 -138.116897 -5.894840 -10.574301 -6.010721 -0.016562 -0.243132 0.028888 -2.471725 -58.406386 11.453986 -117.252730 80.735140 -120.886413 6.271728 -8.223390 4.681750 0.107617 0.266030 0.042577
